<svg width="172" height="68" viewBox="0 0 172 68" fill="none" xmlns="http://www.w3.org/2000/svg">
<g filter="url(#filter0_d_2_652)">
<path d="M5.84122 28.5714C4.82434 28.5714 3.99382 27.746 4.05927 26.7313C4.5047 19.8254 7.44558 13.2912 12.3684 8.36838C17.2912 3.44558 23.8254 0.504695 30.7313 0.0592694C31.746 -0.00618303 32.5714 0.824343 32.5714 1.84122C32.5714 2.8581 31.7459 3.67535 30.7318 3.75047C24.8035 4.18961 19.2043 6.7402 14.9723 10.9723C10.7402 15.2043 8.18961 20.8035 7.75047 26.7318C7.67535 27.7459 6.8581 28.5714 5.84122 28.5714Z" fill="#F3BC18"/>
<path d="M32.5714 58.1588C32.5714 59.1757 31.746 60.0062 30.7313 59.9408C23.8254 59.4953 17.2912 56.5545 12.3684 51.6317C7.4456 46.7089 4.50471 40.1747 4.05927 33.2688C3.99382 32.2541 4.82434 31.4287 5.84122 31.4286C6.8581 31.4286 7.67535 32.2541 7.75047 33.2682C8.18962 39.1965 10.7402 44.7957 14.9723 49.0278C19.2043 53.2598 24.8035 55.8104 30.7318 56.2496C31.7459 56.3247 32.5714 57.1419 32.5714 58.1588Z" fill="#48AADF"/>
<path d="M62.1588 31.4286C63.1756 31.4286 64.0062 32.2538 63.9407 33.2686C63.7392 36.3912 63.0257 39.4638 61.8251 42.3624C60.3893 45.8289 58.2847 48.9786 55.6316 51.6317C52.9785 54.2848 49.8288 56.3893 46.3624 57.8252C43.4637 59.0258 40.3911 59.7392 37.2685 59.9407C36.2537 60.0062 35.4285 59.1757 35.4285 58.1588C35.4285 57.1419 36.254 56.3247 37.2681 56.2495C39.9068 56.054 42.5014 55.4386 44.9531 54.423C47.9728 53.1722 50.7166 51.3389 53.0277 49.0278C55.3389 46.7166 57.1722 43.9729 58.423 40.9532C59.4385 38.5015 60.0539 35.9068 60.2495 33.2682C60.3246 32.2541 61.1419 31.4286 62.1588 31.4286Z" fill="white"/>
<path d="M35.4285 1.84122C35.4285 0.824343 36.254 -0.00618302 37.2687 0.0592695C44.1746 0.504695 50.7088 3.44557 55.6316 8.36837C60.5544 13.2912 63.4953 19.8254 63.9407 26.7312C64.0062 27.746 63.1756 28.5714 62.1588 28.5714C61.1419 28.5714 60.3246 27.7459 60.2495 26.7318C59.8104 20.8035 57.2598 15.2043 53.0277 10.9722C48.7956 6.7402 43.1964 4.18961 37.2682 3.75047C36.254 3.67535 35.4285 2.8581 35.4285 1.84122Z" fill="#4078BC"/>
</g>
<g filter="url(#filter1_d_2_652)">
<path d="M26.26 38.608C25.272 38.608 24.2967 38.4433 23.334 38.114C22.3713 37.81 21.472 37.354 20.636 36.746C19.8 36.1127 19.0527 35.34 18.394 34.428C17.7607 33.516 17.292 32.4647 16.988 31.274L19.268 30.324C19.496 31.1853 19.8253 31.9833 20.256 32.718C20.712 33.4527 21.244 34.086 21.852 34.618C22.46 35.15 23.144 35.568 23.904 35.872C24.664 36.1507 25.4747 36.29 26.336 36.29C27.172 36.29 27.97 36.176 28.73 35.948C29.49 35.6947 30.1487 35.34 30.706 34.884C31.2887 34.4027 31.7447 33.8327 32.074 33.174C32.4033 32.49 32.568 31.73 32.568 30.894C32.568 29.45 32.036 28.2847 30.972 27.398C29.908 26.486 28.3627 25.6753 26.336 24.966L24.626 24.358C23.8153 24.0793 23.0173 23.75 22.232 23.37C21.4467 22.9647 20.7373 22.4833 20.104 21.926C19.496 21.3687 19.002 20.71 18.622 19.95C18.242 19.1647 18.052 18.2527 18.052 17.214C18.052 16.2767 18.242 15.3773 18.622 14.516C19.0273 13.6547 19.5847 12.9073 20.294 12.274C21.0033 11.6407 21.852 11.134 22.84 10.754C23.828 10.374 24.9047 10.184 26.07 10.184C27.3113 10.184 28.4007 10.374 29.338 10.754C30.2753 11.1087 31.0733 11.5647 31.732 12.122C32.416 12.654 32.948 13.2367 33.328 13.87C33.7333 14.5033 34.0247 15.086 34.202 15.618L31.922 16.568C31.7953 16.112 31.58 15.656 31.276 15.2C30.9973 14.7187 30.6173 14.2753 30.136 13.87C29.6547 13.4647 29.0847 13.1353 28.426 12.882C27.7673 12.6287 26.9947 12.502 26.108 12.502C25.348 12.502 24.626 12.616 23.942 12.844C23.2833 13.072 22.688 13.4013 22.156 13.832C21.6493 14.2373 21.244 14.7313 20.94 15.314C20.6613 15.8967 20.522 16.53 20.522 17.214C20.522 17.8727 20.6487 18.4553 20.902 18.962C21.1807 19.4433 21.5607 19.8867 22.042 20.292C22.5233 20.672 23.0933 21.0267 23.752 21.356C24.4107 21.66 25.1327 21.9513 25.918 22.23L27.666 22.876C28.6793 23.2307 29.6293 23.636 30.516 24.092C31.428 24.548 32.2133 25.0927 32.872 25.726C33.5307 26.334 34.05 27.056 34.43 27.892C34.8353 28.728 35.038 29.6907 35.038 30.78C35.038 32.148 34.772 33.326 34.24 34.314C33.708 35.302 33.024 36.1127 32.188 36.746C31.352 37.3793 30.402 37.848 29.338 38.152C28.2993 38.456 27.2733 38.608 26.26 38.608Z" fill="white"/>
<path d="M23.334 38.114L23.6577 37.1678L23.6465 37.164L23.6351 37.1604L23.334 38.114ZM20.636 36.746L20.0321 37.5431L20.0399 37.549L20.0478 37.5547L20.636 36.746ZM18.394 34.428L17.5726 34.9984L17.5779 35.006L17.5833 35.0135L18.394 34.428ZM16.988 31.274L16.6034 30.3509L15.8052 30.6835L16.0191 31.5214L16.988 31.274ZM19.268 30.324L20.2347 30.0681L19.9414 28.9601L18.8834 29.4009L19.268 30.324ZM20.256 32.718L19.3933 33.2237L19.3997 33.2346L19.4064 33.2454L20.256 32.718ZM21.852 34.618L22.5105 33.8654L21.852 34.618ZM23.904 35.872L23.5326 36.8005L23.5461 36.8059L23.5597 36.8109L23.904 35.872ZM28.73 35.948L29.0173 36.9058L29.0319 36.9015L29.0462 36.8967L28.73 35.948ZM30.706 34.884L31.3392 35.658L31.3429 35.655L30.706 34.884ZM32.074 33.174L32.9684 33.6212L32.9718 33.6145L32.975 33.6078L32.074 33.174ZM30.972 27.398L30.3211 28.1573L30.3318 28.1662L30.972 27.398ZM26.336 24.966L26.001 25.9082L26.0057 25.9099L26.336 24.966ZM24.626 24.358L24.961 23.4157L24.9511 23.4123L24.626 24.358ZM22.232 23.37L21.7734 24.2586L21.7848 24.2645L21.7964 24.2702L22.232 23.37ZM20.104 21.926L19.4283 22.6632L19.4358 22.67L19.4434 22.6767L20.104 21.926ZM18.622 19.95L17.7218 20.3856L17.7276 20.3972L18.622 19.95ZM18.622 14.516L17.7172 14.0902L17.712 14.1012L17.7071 14.1124L18.622 14.516ZM20.294 12.274L19.628 11.5281L19.628 11.5281L20.294 12.274ZM22.84 10.754L23.199 11.6873L23.199 11.6873L22.84 10.754ZM29.338 10.754L28.9623 11.6807L28.9732 11.6851L28.9841 11.6893L29.338 10.754ZM31.732 12.122L31.0861 12.8854L31.1018 12.8987L31.1181 12.9113L31.732 12.122ZM33.328 13.87L32.4705 14.3845L32.4779 14.3969L32.4857 14.4091L33.328 13.87ZM34.202 15.618L34.5866 16.5411L35.4446 16.1836L35.1507 15.3018L34.202 15.618ZM31.922 16.568L30.9585 16.8356L31.2615 17.9265L32.3066 17.4911L31.922 16.568ZM31.276 15.2L30.4106 15.701L30.4264 15.7284L30.444 15.7547L31.276 15.2ZM30.136 13.87L30.7801 13.1051L30.7801 13.1051L30.136 13.87ZM23.942 12.844L23.6258 11.8953L23.6149 11.899L23.942 12.844ZM22.156 13.832L22.7807 14.6129L22.7852 14.6092L22.156 13.832ZM20.94 15.314L20.0534 14.8514L20.0454 14.8669L20.0379 14.8825L20.94 15.314ZM20.902 18.962L20.0076 19.4092L20.0213 19.4366L20.0366 19.463L20.902 18.962ZM22.042 20.292L21.3979 21.0569L21.41 21.0671L21.4224 21.0769L22.042 20.292ZM23.752 21.356L23.3048 22.2504L23.3188 22.2574L23.3329 22.264L23.752 21.356ZM25.918 22.23L26.2647 21.2919L26.2524 21.2876L25.918 22.23ZM27.666 22.876L27.3194 23.814L27.3275 23.817L27.3356 23.8199L27.666 22.876ZM30.516 24.092L30.0586 24.9813L30.0688 24.9864L30.516 24.092ZM32.872 25.726L32.1789 26.4468L32.1862 26.4539L32.1937 26.4608L32.872 25.726ZM34.43 27.892L33.5196 28.3058L33.5248 28.3171L33.5302 28.3283L34.43 27.892ZM34.24 34.314L33.3595 33.8399V33.8399L34.24 34.314ZM32.188 36.746L32.7919 37.5431L32.188 36.746ZM29.338 38.152L29.0633 37.1905L29.0571 37.1923L29.338 38.152ZM26.26 37.608C25.3854 37.608 24.5193 37.4626 23.6577 37.1678L23.0103 39.0602C24.074 39.4241 25.1586 39.608 26.26 39.608V37.608ZM23.6351 37.1604C22.7778 36.8897 21.975 36.4834 21.2242 35.9373L20.0478 37.5547C20.969 38.2246 21.9649 38.7303 23.0329 39.0676L23.6351 37.1604ZM21.2399 35.9489C20.4884 35.3797 19.8095 34.6799 19.2047 33.8425L17.5833 35.0135C18.2958 36.0001 19.1116 36.8457 20.0321 37.5431L21.2399 35.9489ZM19.2154 33.8576C18.657 33.0535 18.2345 32.114 17.9569 31.0266L16.0191 31.5214C16.3495 32.8154 16.8644 33.9785 17.5726 34.9984L19.2154 33.8576ZM17.3726 32.1971L19.6526 31.2471L18.8834 29.4009L16.6034 30.3509L17.3726 32.1971ZM18.3013 30.5799C18.5514 31.5248 18.9147 32.4073 19.3933 33.2237L21.1187 32.2123C20.7359 31.5593 20.4406 30.8459 20.2347 30.0681L18.3013 30.5799ZM19.4064 33.2454C19.9109 34.0582 20.5059 34.769 21.1935 35.3706L22.5105 33.8654C21.9821 33.403 21.5131 32.8471 21.1056 32.1906L19.4064 33.2454ZM21.1935 35.3706C21.8877 35.978 22.6691 36.4551 23.5326 36.8005L24.2754 34.9435C23.6189 34.6809 23.0323 34.322 22.5105 33.8654L21.1935 35.3706ZM23.5597 36.8109C24.4369 37.1325 25.3648 37.29 26.336 37.29V35.29C25.5845 35.29 24.8911 35.1688 24.2483 34.9331L23.5597 36.8109ZM26.336 37.29C27.2641 37.29 28.1592 37.1633 29.0173 36.9058L28.4427 34.9902C27.7808 35.1887 27.0799 35.29 26.336 35.29V37.29ZM29.0462 36.8967C29.9087 36.6092 30.6777 36.1992 31.3392 35.658L30.0728 34.11C29.6196 34.4808 29.0713 34.7801 28.4138 34.9993L29.0462 36.8967ZM31.3429 35.655C32.0301 35.0872 32.5751 34.4079 32.9684 33.6212L31.1796 32.7268C30.9142 33.2574 30.5472 33.7181 30.0691 34.113L31.3429 35.655ZM32.975 33.6078C33.3759 32.7753 33.568 31.8648 33.568 30.894H31.568C31.568 31.5952 31.4308 32.2047 31.173 32.7402L32.975 33.6078ZM33.568 30.894C33.568 29.1677 32.9151 27.7155 31.6122 26.6298L30.3318 28.1662C31.1569 28.8538 31.568 29.7323 31.568 30.894H33.568ZM31.6228 26.6387C30.428 25.6146 28.7545 24.753 26.6664 24.0221L26.0057 25.9099C27.9709 26.5977 29.388 27.3574 30.3212 28.1573L31.6228 26.6387ZM26.671 24.0238L24.961 23.4158L24.291 25.3002L26.001 25.9082L26.671 24.0238ZM24.9511 23.4123C24.1788 23.1468 23.4176 22.8328 22.6676 22.4698L21.7964 24.2702C22.617 24.6672 23.4519 25.0118 24.3009 25.3037L24.9511 23.4123ZM22.6906 22.4814C21.9746 22.1118 21.3337 21.676 20.7646 21.1753L19.4434 22.6767C20.141 23.2906 20.9188 23.8175 21.7734 24.2586L22.6906 22.4814ZM20.7797 21.1888C20.2644 20.7165 19.8435 20.157 19.5164 19.5028L17.7276 20.3972C18.1605 21.263 18.7276 22.0208 19.4283 22.6632L20.7797 21.1888ZM19.5222 19.5144C19.2192 18.8884 19.052 18.1303 19.052 17.214H17.052C17.052 18.3751 17.2648 19.441 17.7218 20.3856L19.5222 19.5144ZM19.052 17.214C19.052 16.4163 19.2128 15.6544 19.5369 14.9196L17.7071 14.1124C17.2712 15.1003 17.052 16.137 17.052 17.214H19.052ZM19.5268 14.9418C19.875 14.202 20.3511 13.5636 20.96 13.0199L19.628 11.5281C18.8182 12.2511 18.1797 13.1073 17.7172 14.0902L19.5268 14.9418ZM20.96 13.0199C21.5695 12.4757 22.3111 12.0288 23.199 11.6873L22.481 9.82065C21.3929 10.2392 20.4371 10.8056 19.628 11.5281L20.96 13.0199ZM23.199 11.6873C24.0614 11.3556 25.015 11.184 26.07 11.184V9.184C24.7943 9.184 23.5946 9.39236 22.481 9.82065L23.199 11.6873ZM26.07 11.184C27.211 11.184 28.1681 11.3588 28.9623 11.6807L29.7137 9.82726C28.6333 9.38924 27.4117 9.184 26.07 9.184V11.184ZM28.9841 11.6893C29.8319 12.0101 30.527 12.4124 31.0861 12.8854L32.3779 11.3586C31.6196 10.717 30.7188 10.2073 29.6919 9.81871L28.9841 11.6893ZM31.1181 12.9113C31.7212 13.3804 32.164 13.8737 32.4705 14.3845L34.1855 13.3555C33.732 12.5997 33.1108 11.9276 32.3459 11.3326L31.1181 12.9113ZM32.4857 14.4091C32.8606 14.9948 33.1092 15.502 33.2533 15.9342L35.1507 15.3018C34.9401 14.67 34.6061 14.0119 34.1703 13.3309L32.4857 14.4091ZM33.8174 14.6949L31.5374 15.6449L32.3066 17.4911L34.5866 16.5411L33.8174 14.6949ZM32.8855 16.3004C32.7264 15.7276 32.4617 15.1758 32.108 14.6453L30.444 15.7547C30.6983 16.1362 30.8642 16.4964 30.9585 16.8356L32.8855 16.3004ZM32.1414 14.699C31.7977 14.1053 31.3384 13.5752 30.7801 13.1051L29.4919 14.6349C29.8962 14.9754 30.1969 15.332 30.4106 15.701L32.1414 14.699ZM30.7801 13.1051C30.2041 12.62 29.5349 12.2371 28.785 11.9487L28.067 13.8153C28.6344 14.0336 29.1052 14.3093 29.4919 14.6349L30.7801 13.1051ZM28.785 11.9487C27.9866 11.6416 27.0872 11.502 26.108 11.502V13.502C26.9022 13.502 27.5481 13.6158 28.067 13.8153L28.785 11.9487ZM26.108 11.502C25.2464 11.502 24.4171 11.6315 23.6258 11.8953L24.2582 13.7927C24.8349 13.6005 25.4496 13.502 26.108 13.502V11.502ZM23.6149 11.899C22.8486 12.1643 22.1507 12.5497 21.5268 13.0548L22.7852 14.6092C23.2253 14.2529 23.7181 13.9797 24.2691 13.789L23.6149 11.899ZM21.5313 13.0511C20.9148 13.5444 20.4208 14.1473 20.0534 14.8514L21.8266 15.7766C22.0672 15.3154 22.3839 14.9303 22.7807 14.6129L21.5313 13.0511ZM20.0379 14.8825C19.691 15.6078 19.522 16.3897 19.522 17.214H21.522C21.522 16.6703 21.6317 16.1855 21.8421 15.7455L20.0379 14.8825ZM19.522 17.214C19.522 18.0027 19.6743 18.7427 20.0076 19.4092L21.7964 18.5148C21.623 18.1679 21.522 17.7427 21.522 17.214H19.522ZM20.0366 19.463C20.3803 20.0567 20.8396 20.5868 21.3979 21.0569L22.6861 19.5271C22.2818 19.1866 21.9811 18.83 21.7674 18.461L20.0366 19.463ZM21.4224 21.0769C21.9667 21.5066 22.5968 21.8964 23.3048 22.2504L24.1992 20.4616C23.5899 20.1569 23.08 19.8374 22.6616 19.5071L21.4224 21.0769ZM23.3329 22.264C24.023 22.5824 24.7737 22.885 25.5836 23.1724L26.2524 21.2876C25.4917 21.0176 24.7983 20.7376 24.1711 20.448L23.3329 22.264ZM25.5714 23.168L27.3194 23.814L28.0127 21.938L26.2647 21.292L25.5714 23.168ZM27.3356 23.8199C28.3087 24.1604 29.216 24.5479 30.0587 24.9813L30.9733 23.2027C30.0427 22.7241 29.0499 22.3009 27.9964 21.9321L27.3356 23.8199ZM30.0688 24.9864C30.9009 25.4025 31.6008 25.891 32.1789 26.4468L33.5651 25.0052C32.8258 24.2943 31.9551 23.6935 30.9632 23.1976L30.0688 24.9864ZM32.1937 26.4608C32.752 26.9761 33.1934 27.5882 33.5196 28.3058L35.3404 27.4782C34.9066 26.5238 34.3094 25.6919 33.5503 24.9912L32.1937 26.4608ZM33.5302 28.3283C33.8591 29.0067 34.038 29.8159 34.038 30.78H36.038C36.038 29.5655 35.8115 28.4493 35.3298 27.4557L33.5302 28.3283ZM34.038 30.78C34.038 32.0184 33.7976 33.0263 33.3595 33.8399L35.1205 34.7881C35.7464 33.6257 36.038 32.2776 36.038 30.78H34.038ZM33.3595 33.8399C32.8907 34.7106 32.298 35.4081 31.5841 35.9489L32.7919 37.5431C33.75 36.8172 34.5253 35.8934 35.1205 34.7881L33.3595 33.8399ZM31.5841 35.9489C30.8521 36.5035 30.015 36.9186 29.0633 37.1905L29.6127 39.1135C30.789 38.7774 31.8519 38.2552 32.7919 37.5431L31.5841 35.9489ZM29.0571 37.1923C28.1035 37.4714 27.172 37.608 26.26 37.608V39.608C27.3746 39.608 28.4952 39.4406 29.6189 39.1117L29.0571 37.1923Z" fill="white"/>
<path d="M33.0269 48.8286V21.6206H41.8429C43.0082 21.6206 44.0976 21.8106 45.1109 22.1906C46.1496 22.5706 47.0489 23.1153 47.8089 23.8246C48.5689 24.5086 49.1642 25.3446 49.5949 26.3326C50.0509 27.2953 50.2789 28.3719 50.2789 29.5626C50.2789 30.7533 50.0509 31.8426 49.5949 32.8306C49.1642 33.7933 48.5689 34.6293 47.8089 35.3386C47.0489 36.0226 46.1496 36.5546 45.1109 36.9346C44.0976 37.3146 43.0082 37.5046 41.8429 37.5046H35.4589V48.8286H33.0269ZM41.9569 35.1866C42.7929 35.1866 43.5656 35.0473 44.2749 34.7686C44.9842 34.4646 45.5922 34.0593 46.0989 33.5526C46.6309 33.0459 47.0489 32.4506 47.3529 31.7666C47.6569 31.0826 47.8089 30.3479 47.8089 29.5626C47.8089 28.7773 47.6569 28.0426 47.3529 27.3586C47.0489 26.6493 46.6309 26.0539 46.0989 25.5726C45.5922 25.0659 44.9842 24.6733 44.2749 24.3946C43.5656 24.0906 42.7929 23.9386 41.9569 23.9386H35.4589V35.1866H41.9569Z" fill="white"/>
<path d="M33.0269 48.8286H32.0269V49.8286H33.0269V48.8286ZM33.0269 21.6206V20.6206H32.0269V21.6206H33.0269ZM45.1109 22.1906L44.7598 23.127L44.7673 23.1297L45.1109 22.1906ZM47.8089 23.8246L47.1266 24.5557L47.1332 24.5618L47.1399 24.5679L47.8089 23.8246ZM49.5949 26.3326L48.6782 26.7322L48.6845 26.7466L48.6912 26.7607L49.5949 26.3326ZM49.5949 32.8306L48.6869 32.4115L48.6821 32.4222L49.5949 32.8306ZM47.8089 35.3386L48.4779 36.0819L48.4846 36.0758L48.4912 36.0697L47.8089 35.3386ZM45.1109 36.9346L44.7673 35.9955L44.7598 35.9983L45.1109 36.9346ZM35.4589 37.5046V36.5046H34.4589V37.5046H35.4589ZM35.4589 48.8286V49.8286H36.4589V48.8286H35.4589ZM44.2749 34.7686L44.6405 35.6994L44.6548 35.6938L44.6688 35.6878L44.2749 34.7686ZM46.0989 33.5526L45.4092 32.8285L45.4004 32.8369L45.3918 32.8455L46.0989 33.5526ZM47.3529 31.7666L46.4391 31.3605L47.3529 31.7666ZM47.3529 27.3586L46.4337 27.7526L46.4391 27.7648L47.3529 27.3586ZM46.0989 25.5726L45.3918 26.2797L45.4095 26.2974L45.428 26.3141L46.0989 25.5726ZM44.2749 24.3946L43.881 25.3138L43.895 25.3198L43.9092 25.3254L44.2749 24.3946ZM35.4589 23.9386V22.9386H34.4589V23.9386H35.4589ZM35.4589 35.1866H34.4589V36.1866H35.4589V35.1866ZM34.0269 48.8286V21.6206H32.0269V48.8286H34.0269ZM33.0269 22.6206H41.8429V20.6206H33.0269V22.6206ZM41.8429 22.6206C42.8976 22.6206 43.8671 22.7922 44.7598 23.1269L45.462 21.2543C44.3281 20.829 43.1189 20.6206 41.8429 20.6206V22.6206ZM44.7673 23.1297C45.6884 23.4667 46.4706 23.9434 47.1266 24.5557L48.4912 23.0936C47.6272 22.2872 46.6107 21.6745 45.4545 21.2515L44.7673 23.1297ZM47.1399 24.5679C47.788 25.1512 48.3015 25.8679 48.6782 26.7322L50.5116 25.933C50.027 24.8213 49.3497 23.866 48.4779 23.0813L47.1399 24.5679ZM48.6912 26.7607C49.0767 27.5745 49.2789 28.5024 49.2789 29.5626H51.2789C51.2789 28.2414 51.0251 27.016 50.4986 25.9045L48.6912 26.7607ZM49.2789 29.5626C49.2789 30.6224 49.0768 31.5669 48.6869 32.4116L50.5029 33.2497C51.025 32.1183 51.2789 30.8842 51.2789 29.5626H49.2789ZM48.6821 32.4222C48.3051 33.2648 47.7875 33.9907 47.1266 34.6076L48.4912 36.0697C49.3503 35.2679 50.0233 34.3217 50.5077 33.239L48.6821 32.4222ZM47.1399 34.5953C46.4824 35.1871 45.6959 35.6558 44.7673 35.9955L45.4545 37.8737C46.6032 37.4535 47.6154 36.8581 48.4779 36.0819L47.1399 34.5953ZM44.7598 35.9983C43.8671 36.333 42.8976 36.5046 41.8429 36.5046V38.5046C43.1189 38.5046 44.3281 38.2962 45.462 37.8709L44.7598 35.9983ZM41.8429 36.5046H35.4589V38.5046H41.8429V36.5046ZM34.4589 37.5046V48.8286H36.4589V37.5046H34.4589ZM35.4589 47.8286H33.0269V49.8286H35.4589V47.8286ZM41.9569 36.1866C42.9059 36.1866 43.8039 36.028 44.6405 35.6994L43.9092 33.8379C43.3272 34.0665 42.6799 34.1866 41.9569 34.1866V36.1866ZM44.6688 35.6878C45.486 35.3375 46.2026 34.8631 46.806 34.2597L45.3918 32.8455C44.9818 33.2555 44.4825 33.5917 43.881 33.8495L44.6688 35.6878ZM46.7885 34.2768C47.4172 33.6781 47.9106 32.9741 48.2667 32.1728L46.4391 31.3605C46.1872 31.9271 45.8446 32.4138 45.4092 32.8285L46.7885 34.2768ZM48.2667 32.1728C48.6303 31.3546 48.8089 30.4808 48.8089 29.5626H46.8089C46.8089 30.2151 46.6835 30.8106 46.4391 31.3605L48.2667 32.1728ZM48.8089 29.5626C48.8089 28.6444 48.6303 27.7706 48.2667 26.9525L46.4391 27.7648C46.6835 28.3146 46.8089 28.9102 46.8089 29.5626H48.8089ZM48.272 26.9647C47.9157 26.1331 47.4165 25.4162 46.7698 24.8311L45.428 26.3141C45.8452 26.6917 46.1821 27.1654 46.4337 27.7525L48.272 26.9647ZM46.806 24.8655C46.196 24.2555 45.4696 23.7896 44.6405 23.4639L43.9092 25.3254C44.4989 25.557 44.9884 25.8764 45.3918 26.2797L46.806 24.8655ZM44.6688 23.4755C43.8249 23.1138 42.9169 22.9386 41.9569 22.9386V24.9386C42.6689 24.9386 43.3062 25.0674 43.881 25.3138L44.6688 23.4755ZM41.9569 22.9386H35.4589V24.9386H41.9569V22.9386ZM34.4589 23.9386V35.1866H36.4589V23.9386H34.4589ZM35.4589 36.1866H41.9569V34.1866H35.4589V36.1866Z" fill="white"/>
</g>
<g filter="url(#filter2_d_2_652)">
<path d="M85.578 30.352C84.1113 30.352 82.8427 29.9633 81.772 29.186C80.716 28.394 79.968 27.2647 79.528 25.798L82.762 24.522C82.9527 25.27 83.268 25.886 83.708 26.37C84.148 26.854 84.7713 27.096 85.578 27.096C85.842 27.096 86.0913 27.0667 86.326 27.008C86.5753 26.9493 86.788 26.8613 86.964 26.744C87.1547 26.612 87.3087 26.4507 87.426 26.26C87.5433 26.0693 87.602 25.8493 87.602 25.6C87.602 25.3507 87.5507 25.1233 87.448 24.918C87.36 24.698 87.206 24.5 86.986 24.324C86.766 24.1333 86.4727 23.95 86.106 23.774C85.7393 23.5833 85.2773 23.3853 84.72 23.18L83.752 22.828C83.3413 22.6813 82.916 22.4833 82.476 22.234C82.0507 21.97 81.662 21.6547 81.31 21.288C80.958 20.9213 80.672 20.5033 80.452 20.034C80.232 19.55 80.122 19.0147 80.122 18.428C80.122 17.7973 80.2467 17.2033 80.496 16.646C80.7453 16.0887 81.0973 15.612 81.552 15.216C82.0067 14.8053 82.5567 14.4827 83.202 14.248C83.8473 14.0133 84.5587 13.896 85.336 13.896C86.1573 13.896 86.8613 14.006 87.448 14.226C88.0347 14.4313 88.5333 14.7027 88.944 15.04C89.3547 15.3627 89.6773 15.7293 89.912 16.14C90.1613 16.5507 90.352 16.9467 90.484 17.328L87.514 18.582C87.3527 18.1127 87.096 17.7387 86.744 17.46C86.392 17.1667 85.9373 17.02 85.38 17.02C84.7933 17.02 84.324 17.1447 83.972 17.394C83.6347 17.6287 83.466 17.9367 83.466 18.318C83.466 18.714 83.642 19.066 83.994 19.374C84.346 19.682 84.9693 19.99 85.864 20.298L86.832 20.628C88.1667 21.0827 89.2007 21.6913 89.934 22.454C90.6673 23.2167 91.034 24.2433 91.034 25.534C91.034 26.3553 90.8653 27.0667 90.528 27.668C90.2053 28.2693 89.78 28.768 89.252 29.164C88.7387 29.56 88.152 29.8533 87.492 30.044C86.8467 30.2493 86.2087 30.352 85.578 30.352ZM96.9066 17.504V20.496H103.155V23.752H96.9066V26.744H103.859V30H93.4746V14.248H103.859V17.504H96.9066ZM106.58 30V14.248H112.212C113.019 14.248 113.759 14.3727 114.434 14.622C115.123 14.8713 115.717 15.2233 116.216 15.678C116.715 16.118 117.103 16.6533 117.382 17.284C117.661 17.9147 117.8 18.6113 117.8 19.374C117.8 20.1367 117.661 20.8333 117.382 21.464C117.103 22.0947 116.715 22.6373 116.216 23.092C115.717 23.532 115.123 23.8767 114.434 24.126C113.759 24.3753 113.019 24.5 112.212 24.5H110.012V30H106.58ZM112.322 21.244C113.041 21.244 113.576 21.068 113.928 20.716C114.28 20.364 114.456 19.9167 114.456 19.374C114.456 18.8313 114.28 18.384 113.928 18.032C113.576 17.68 113.041 17.504 112.322 17.504H110.012V21.244H112.322ZM119.922 14.248H125.862C126.713 14.248 127.475 14.38 128.15 14.644C128.825 14.8933 129.389 15.2453 129.844 15.7C130.313 16.1547 130.665 16.6973 130.9 17.328C131.149 17.944 131.274 18.6187 131.274 19.352C131.274 19.8653 131.186 20.342 131.01 20.782C130.849 21.222 130.621 21.6327 130.328 22.014C130.049 22.3807 129.719 22.7107 129.338 23.004C128.957 23.2827 128.546 23.5173 128.106 23.708V23.906L132.22 29.78V30H128.304L124.322 24.324H123.354V30H119.922V14.248ZM125.862 21.156C126.478 21.156 126.962 20.98 127.314 20.628C127.666 20.2613 127.842 19.814 127.842 19.286C127.842 18.758 127.673 18.318 127.336 17.966C127.013 17.5993 126.522 17.416 125.862 17.416H123.354V21.156H125.862ZM141.54 30.352C140.352 30.352 139.252 30.1393 138.24 29.714C137.228 29.2887 136.348 28.7093 135.6 27.976C134.866 27.228 134.287 26.3553 133.862 25.358C133.451 24.3607 133.246 23.2827 133.246 22.124C133.246 20.9653 133.451 19.8873 133.862 18.89C134.287 17.8927 134.866 17.0273 135.6 16.294C136.348 15.546 137.228 14.9593 138.24 14.534C139.252 14.1087 140.352 13.896 141.54 13.896C142.728 13.896 143.828 14.1087 144.84 14.534C145.852 14.9593 146.724 15.546 147.458 16.294C148.206 17.0273 148.785 17.8927 149.196 18.89C149.621 19.8873 149.834 20.9653 149.834 22.124C149.834 23.2827 149.621 24.3607 149.196 25.358C148.785 26.3553 148.206 27.228 147.458 27.976C146.724 28.7093 145.852 29.2887 144.84 29.714C143.828 30.1393 142.728 30.352 141.54 30.352ZM141.54 27.096C142.214 27.096 142.845 26.9787 143.432 26.744C144.033 26.5093 144.554 26.172 144.994 25.732C145.434 25.292 145.778 24.7713 146.028 24.17C146.277 23.554 146.402 22.872 146.402 22.124C146.402 21.376 146.277 20.7013 146.028 20.1C145.778 19.484 145.434 18.956 144.994 18.516C144.554 18.076 144.033 17.7387 143.432 17.504C142.845 17.2693 142.214 17.152 141.54 17.152C140.85 17.152 140.212 17.2693 139.626 17.504C139.039 17.7387 138.526 18.076 138.086 18.516C137.646 18.956 137.301 19.484 137.052 20.1C136.802 20.7013 136.678 21.376 136.678 22.124C136.678 22.872 136.802 23.554 137.052 24.17C137.301 24.7713 137.646 25.292 138.086 25.732C138.526 26.172 139.039 26.5093 139.626 26.744C140.212 26.9787 140.85 27.096 141.54 27.096ZM159.544 21.244H167.31C167.354 21.42 167.39 21.6473 167.42 21.926C167.464 22.2047 167.486 22.4687 167.486 22.718C167.486 23.8327 167.324 24.8227 167.002 25.688C166.679 26.5533 166.21 27.316 165.594 27.976C164.89 28.724 164.039 29.3107 163.042 29.736C162.044 30.1467 160.908 30.352 159.632 30.352C158.488 30.352 157.402 30.1467 156.376 29.736C155.364 29.3253 154.476 28.7607 153.714 28.042C152.951 27.3087 152.35 26.4433 151.91 25.446C151.47 24.434 151.25 23.3267 151.25 22.124C151.25 20.9213 151.47 19.8213 151.91 18.824C152.35 17.812 152.951 16.9467 153.714 16.228C154.476 15.4947 155.364 14.9227 156.376 14.512C157.402 14.1013 158.488 13.896 159.632 13.896C160.966 13.896 162.125 14.1233 163.108 14.578C164.105 15.0327 164.978 15.656 165.726 16.448L163.394 18.736C162.88 18.2227 162.33 17.834 161.744 17.57C161.172 17.2913 160.453 17.152 159.588 17.152C158.913 17.152 158.275 17.2767 157.674 17.526C157.087 17.7607 156.566 18.098 156.112 18.538C155.672 18.9633 155.32 19.484 155.056 20.1C154.806 20.7013 154.682 21.376 154.682 22.124C154.682 22.872 154.806 23.554 155.056 24.17C155.32 24.7713 155.679 25.292 156.134 25.732C156.588 26.1573 157.116 26.4947 157.718 26.744C158.319 26.9787 158.964 27.096 159.654 27.096C161.003 27.096 162.081 26.7367 162.888 26.018C163.137 25.798 163.364 25.5267 163.57 25.204C163.79 24.8667 163.966 24.5 164.098 24.104H159.544V21.244Z" fill="white"/>
<path d="M109.096 43.952H113.208V46H105.784V43.888C106.424 43.2587 107.016 42.6773 107.56 42.144C107.795 41.92 108.029 41.6907 108.264 41.456C108.488 41.2213 108.696 41.008 108.888 40.816C109.091 40.6133 109.267 40.4373 109.416 40.288C109.576 40.128 109.693 40.0053 109.768 39.92C110.077 39.5787 110.296 39.28 110.424 39.024C110.552 38.7573 110.616 38.4693 110.616 38.16C110.616 37.8507 110.499 37.5893 110.264 37.376C110.04 37.152 109.725 37.04 109.32 37.04C108.915 37.04 108.589 37.1573 108.344 37.392C108.109 37.616 107.933 37.9147 107.816 38.288L105.64 37.392C105.736 37.0613 105.885 36.7413 106.088 36.432C106.291 36.1227 106.547 35.8507 106.856 35.616C107.165 35.3707 107.528 35.1733 107.944 35.024C108.371 34.8747 108.84 34.8 109.352 34.8C109.928 34.8 110.445 34.8853 110.904 35.056C111.363 35.216 111.747 35.44 112.056 35.728C112.376 36.016 112.621 36.3573 112.792 36.752C112.963 37.1467 113.048 37.5733 113.048 38.032C113.048 38.6933 112.893 39.3067 112.584 39.872C112.285 40.4267 111.864 40.976 111.32 41.52L109.016 43.792L109.096 43.952ZM119.298 46.256C118.573 46.256 117.922 46.112 117.346 45.824C116.77 45.536 116.28 45.136 115.874 44.624C115.469 44.112 115.154 43.5093 114.93 42.816C114.717 42.112 114.61 41.3493 114.61 40.528C114.61 39.7067 114.717 38.9493 114.93 38.256C115.154 37.552 115.469 36.944 115.874 36.432C116.28 35.92 116.77 35.52 117.346 35.232C117.922 34.944 118.573 34.8 119.298 34.8C120.013 34.8 120.658 34.944 121.234 35.232C121.821 35.52 122.317 35.92 122.722 36.432C123.128 36.944 123.437 37.552 123.65 38.256C123.874 38.9493 123.986 39.7067 123.986 40.528C123.986 41.3493 123.874 42.112 123.65 42.816C123.437 43.5093 123.128 44.112 122.722 44.624C122.317 45.136 121.821 45.536 121.234 45.824C120.658 46.112 120.013 46.256 119.298 46.256ZM119.298 44.016C119.661 44.016 119.981 43.9307 120.258 43.76C120.546 43.5787 120.786 43.3333 120.978 43.024C121.181 42.7147 121.33 42.3467 121.426 41.92C121.533 41.4933 121.586 41.0293 121.586 40.528C121.586 40.0267 121.533 39.5627 121.426 39.136C121.33 38.7093 121.181 38.3413 120.978 38.032C120.786 37.7227 120.546 37.4827 120.258 37.312C119.981 37.1307 119.661 37.04 119.298 37.04C118.936 37.04 118.61 37.1307 118.322 37.312C118.045 37.4827 117.805 37.7227 117.602 38.032C117.41 38.3413 117.261 38.7093 117.154 39.136C117.058 39.5627 117.01 40.0267 117.01 40.528C117.01 41.0293 117.058 41.4933 117.154 41.92C117.261 42.3467 117.41 42.7147 117.602 43.024C117.805 43.3333 118.045 43.5787 118.322 43.76C118.61 43.9307 118.936 44.016 119.298 44.016ZM128.627 43.952H132.739V46H125.315V43.888C125.955 43.2587 126.547 42.6773 127.091 42.144C127.326 41.92 127.561 41.6907 127.795 41.456C128.019 41.2213 128.227 41.008 128.419 40.816C128.622 40.6133 128.798 40.4373 128.947 40.288C129.107 40.128 129.225 40.0053 129.299 39.92C129.609 39.5787 129.827 39.28 129.955 39.024C130.083 38.7573 130.147 38.4693 130.147 38.16C130.147 37.8507 130.03 37.5893 129.795 37.376C129.571 37.152 129.257 37.04 128.851 37.04C128.446 37.04 128.121 37.1573 127.875 37.392C127.641 37.616 127.465 37.9147 127.347 38.288L125.171 37.392C125.267 37.0613 125.417 36.7413 125.619 36.432C125.822 36.1227 126.078 35.8507 126.387 35.616C126.697 35.3707 127.059 35.1733 127.475 35.024C127.902 34.8747 128.371 34.8 128.883 34.8C129.459 34.8 129.977 34.8853 130.435 35.056C130.894 35.216 131.278 35.44 131.587 35.728C131.907 36.016 132.153 36.3573 132.323 36.752C132.494 37.1467 132.579 37.5733 132.579 38.032C132.579 38.6933 132.425 39.3067 132.115 39.872C131.817 40.4267 131.395 40.976 130.851 41.52L128.547 43.792L128.627 43.952ZM137.534 43.952H141.646V46H134.222V43.888C134.862 43.2587 135.454 42.6773 135.998 42.144C136.232 41.92 136.467 41.6907 136.702 41.456C136.926 41.2213 137.134 41.008 137.326 40.816C137.528 40.6133 137.704 40.4373 137.854 40.288C138.014 40.128 138.131 40.0053 138.206 39.92C138.515 39.5787 138.734 39.28 138.862 39.024C138.99 38.7573 139.054 38.4693 139.054 38.16C139.054 37.8507 138.936 37.5893 138.702 37.376C138.478 37.152 138.163 37.04 137.758 37.04C137.352 37.04 137.027 37.1573 136.782 37.392C136.547 37.616 136.371 37.9147 136.254 38.288L134.078 37.392C134.174 37.0613 134.323 36.7413 134.526 36.432C134.728 36.1227 134.984 35.8507 135.294 35.616C135.603 35.3707 135.966 35.1733 136.382 35.024C136.808 34.8747 137.278 34.8 137.79 34.8C138.366 34.8 138.883 34.8853 139.342 35.056C139.8 35.216 140.184 35.44 140.494 35.728C140.814 36.016 141.059 36.3573 141.23 36.752C141.4 37.1467 141.486 37.5733 141.486 38.032C141.486 38.6933 141.331 39.3067 141.022 39.872C140.723 40.4267 140.302 40.976 139.758 41.52L137.454 43.792L137.534 43.952Z" fill="white"/>
</g>
<defs>
<filter id="filter0_d_2_652" x="0.0556641" y="0.0556641" width="67.8887" height="67.8887" filterUnits="userSpaceOnUse" color-interpolation-filters="sRGB">
<feFlood flood-opacity="0" result="BackgroundImageFix"/>
<feColorMatrix in="SourceAlpha" type="matrix" values="0 0 0 0 0 0 0 0 0 0 0 0 0 0 0 0 0 0 127 0" result="hardAlpha"/>
<feOffset dy="4"/>
<feGaussianBlur stdDeviation="2"/>
<feComposite in2="hardAlpha" operator="out"/>
<feColorMatrix type="matrix" values="0 0 0 0 0 0 0 0 0 0 0 0 0 0 0 0 0 0 0.25 0"/>
<feBlend mode="normal" in2="BackgroundImageFix" result="effect1_dropShadow_2_652"/>
<feBlend mode="normal" in="SourceGraphic" in2="effect1_dropShadow_2_652" result="shape"/>
</filter>
<filter id="filter1_d_2_652" x="12.988" y="10.1841" width="41.2909" height="46.6445" filterUnits="userSpaceOnUse" color-interpolation-filters="sRGB">
<feFlood flood-opacity="0" result="BackgroundImageFix"/>
<feColorMatrix in="SourceAlpha" type="matrix" values="0 0 0 0 0 0 0 0 0 0 0 0 0 0 0 0 0 0 127 0" result="hardAlpha"/>
<feOffset dy="4"/>
<feGaussianBlur stdDeviation="2"/>
<feComposite in2="hardAlpha" operator="out"/>
<feColorMatrix type="matrix" values="0 0 0 0 0 0 0 0 0 0 0 0 0 0 0 0 0 0 0.25 0"/>
<feBlend mode="normal" in2="BackgroundImageFix" result="effect1_dropShadow_2_652"/>
<feBlend mode="normal" in="SourceGraphic" in2="effect1_dropShadow_2_652" result="shape"/>
</filter>
<filter id="filter2_d_2_652" x="75.528" y="11.896" width="95.9576" height="40.36" filterUnits="userSpaceOnUse" color-interpolation-filters="sRGB">
<feFlood flood-opacity="0" result="BackgroundImageFix"/>
<feColorMatrix in="SourceAlpha" type="matrix" values="0 0 0 0 0 0 0 0 0 0 0 0 0 0 0 0 0 0 127 0" result="hardAlpha"/>
<feOffset dy="2"/>
<feGaussianBlur stdDeviation="2"/>
<feComposite in2="hardAlpha" operator="out"/>
<feColorMatrix type="matrix" values="0 0 0 0 0 0 0 0 0 0 0 0 0 0 0 0 0 0 0.25 0"/>
<feBlend mode="normal" in2="BackgroundImageFix" result="effect1_dropShadow_2_652"/>
<feBlend mode="normal" in="SourceGraphic" in2="effect1_dropShadow_2_652" result="shape"/>
</filter>
</defs>
</svg>
